<?xml version="1.0" encoding="iso-8859-1"?>
<!-- Generator: Adobe Illustrator 18.1.1, SVG Export Plug-In . SVG Version: 6.00 Build 0)  -->
<svg xmlns="http://www.w3.org/2000/svg" xmlns:xlink="http://www.w3.org/1999/xlink" version="1.1" id="Capa_1" x="0px" y="0px" viewBox="0 0 494.158 494.158" style="enable-background:new 0 0 494.158 494.158;" xml:space="preserve" width="512px" height="512px">
<g>
	<g id="Icons_34_">
		<g>
			<path d="M405.442,452.373l-58.239-165.418c-6.056,1.895-12.316,3.218-18.831,3.218c-3.757,0-7.467-0.327-11.126-0.987     c-4.319,13.567-13.049,25.125-24.612,32.975l-26.599,75.509l32.521,92.331c0.889,2.481,3.217,4.151,5.862,4.157     c2.618,0.018,4.962-1.619,5.878-4.092l22.006-60.362c0.627-1.75,2.01-3.122,3.757-3.739c1.765-0.621,3.71-0.418,5.298,0.543     l54.985,33.263c2.265,1.349,5.121,1.158,7.159-0.503C405.539,457.606,406.312,454.851,405.442,452.373z" fill="#FFFFFF"/>
			<path d="M174.833,320.147c-10.659,0-21.237-2.729-30.565-7.891c-0.899-0.498-1.684-1.115-2.549-1.645l-36.314,103.088     c-0.871,2.473-0.079,5.233,1.958,6.895c1.138,0.925,2.521,1.397,3.932,1.397c1.11,0,2.215-0.296,3.211-0.899l54.983-33.254     c0.996-0.595,2.118-0.899,3.243-0.899c0.689,0,1.379,0.12,2.056,0.353c1.746,0.618,3.146,1.992,3.772,3.742l21.99,60.36     c0.898,2.464,3.243,4.094,5.861,4.094c0,0,0.017,0,0.033,0c2.63-0.017,4.957-1.679,5.845-4.157l41.754-118.565     c-17.739-0.856-34.241-8.9-45.498-22.353C198.53,316.744,186.892,320.147,174.833,320.147z" fill="#FFFFFF"/>
			<path d="M364.172,119.262c-6.629-2.009-11.944-6.951-14.432-13.396c-2.475-6.448-1.85-13.678,1.713-19.603l0.018-0.025     c6.795-11.268,5.543-25.628-3.097-35.55c-5.89-6.758-14.289-10.403-22.876-10.403c-4.013,0-8.076,0.796-11.929,2.45     c-2.823,1.212-5.827,1.813-8.814,1.813c-3.757,0-7.479-0.939-10.853-2.8c-6.032-3.341-10.209-9.296-11.268-16.119l-0.018-0.023     c-2.037-12.995-12.229-23.19-25.222-25.236C255.806,0.12,254.236,0,252.659,0c-11.284,0-21.813,6.316-27.031,16.64     c-3.129,6.18-8.928,10.562-15.701,11.879c-1.427,0.282-2.856,0.415-4.285,0.415c-5.366,0-10.596-1.926-14.722-5.514     c-5.668-4.934-12.782-7.472-19.94-7.472c-5.378,0-10.784,1.428-15.621,4.342c-11.268,6.783-16.867,20.06-13.869,32.896     c1.576,6.726-0.033,13.805-4.381,19.175c-4.27,5.272-10.676,8.314-17.438,8.314c-0.143,0-0.273,0-0.415,0     c-0.193,0-0.387-0.006-0.575-0.006c-12.924,0-24.452,8.209-28.676,20.467c-4.268,12.44-0.028,26.214,10.5,34.104l0.033,0.026     c5.537,4.14,8.844,10.602,8.958,17.505c0.131,6.903-2.937,13.484-8.332,17.843c-10.243,8.269-13.965,22.186-9.247,34.461     c4.513,11.749,15.799,19.423,28.289,19.423c0.558,0,1.139-0.014,1.701-0.048c0.416-0.023,0.814-0.031,1.219-0.031     c6.47,0,12.634,2.794,16.901,7.691c4.529,5.208,6.339,12.592,5.02,19.375c-2.511,12.909,3.618,25.64,15.132,32.005     c4.592,2.543,9.629,3.778,14.653,3.778c7.529,0,14.995-2.808,20.761-8.218c4.188-3.926,9.662-6.061,15.313-6.061     c1.173,0,2.327,0.089,3.5,0.273c6.823,1.067,12.765,5.233,16.1,11.285l0.017,0.022c5.412,9.777,15.667,15.652,26.536,15.652     c1.929,0,3.87-0.185,5.811-0.56c12.907-2.53,22.718-13.092,24.294-26.161c0.813-6.869,4.764-12.969,10.67-16.535     c3.534-2.125,7.529-3.209,11.564-3.209c2.708,0,5.441,0.498,8.041,1.5l0.028,0.009c3.551,1.366,7.245,2.032,10.904,2.032     c8.956,0,17.692-3.989,23.564-11.254c8.287-10.235,9.009-24.627,1.8-35.665c-3.791-5.788-4.69-12.986-2.442-19.519     c2.247-6.536,7.387-11.672,13.919-13.911c12.459-4.271,20.727-16.077,20.488-29.234     C385.455,134.558,376.755,123.066,364.172,119.262z M237.057,242.328c-50.854,0-92.242-41.372-92.242-92.228     c0-50.859,41.389-92.236,92.242-92.236c50.858,0,92.23,41.377,92.23,92.236C329.287,200.956,287.915,242.328,237.057,242.328z" fill="#FFFFFF"/>
			<path d="M237.057,90.742c-32.734,0-59.367,26.625-59.367,59.358c0,32.725,26.633,59.35,59.367,59.35s59.35-26.625,59.35-59.35     C296.406,117.367,269.791,90.742,237.057,90.742z" fill="#FFFFFF"/>
		</g>
		<path d="M284.572,27.417h-3.719v-3.536h3.719V27.417z M281.337,26.934h2.75v-2.569h-2.75V26.934z" fill="#FFFFFF"/>
	</g>
</g>
<g>
</g>
<g>
</g>
<g>
</g>
<g>
</g>
<g>
</g>
<g>
</g>
<g>
</g>
<g>
</g>
<g>
</g>
<g>
</g>
<g>
</g>
<g>
</g>
<g>
</g>
<g>
</g>
<g>
</g>
</svg>
