<?xml version="1.0" encoding="iso-8859-1"?>
<!-- Generator: Adobe Illustrator 18.0.0, SVG Export Plug-In . SVG Version: 6.00 Build 0)  -->
<!DOCTYPE svg PUBLIC "-//W3C//DTD SVG 1.1//EN" "http://www.w3.org/Graphics/SVG/1.1/DTD/svg11.dtd">
<svg xmlns="http://www.w3.org/2000/svg" xmlns:xlink="http://www.w3.org/1999/xlink" version="1.1" id="Capa_1" x="0px" y="0px" viewBox="0 0 297 297" style="enable-background:new 0 0 297 297;" xml:space="preserve" width="512px" height="512px">
<g>
	<path d="M64.282,108.145c-5.621,1.053-10.209,4.572-10.209,10.209c0,5.639,4.571,10.208,10.209,10.208   c2.789,0,5.476-0.434,8.009-1.224c-2.374-6.245-4.19-12.849-5.454-19.705C66.837,107.633,64.923,108.025,64.282,108.145z" fill="#FFFFFF"/>
	<path d="M181.383,199.42c-2.88-7.53-3.92-13.906-3.92-13.906c-0.633-3.878-4.242-6.171-8.021-5.093c0,0-11.238,3.202-20.94,3.202   c-9.697,0-20.924-3.198-20.924-3.198c-3.78-1.076-7.391,1.217-8.022,5.095c0,0-0.983,6.029-3.772,13.468   c-1.858,4.955-2.894,6.663-2.894,6.663c-2.039,3.36-0.491,6.109,3.439,6.109h64.345c3.931,0,5.474-2.745,3.429-6.103   C184.102,205.657,183.207,204.189,181.383,199.42z" fill="#FFFFFF"/>
	<path d="M208.815,0H88.187c-5.047,0-9.141,4.098-9.141,9.153v75.513c0,23.637,7.02,45.152,19.765,60.582   c12.829,15.53,30.478,24.084,49.691,24.084c19.214,0,36.862-8.554,49.69-24.084c12.745-15.43,19.765-36.945,19.765-60.582V9.153   C217.956,4.098,213.862,0,208.815,0z" fill="#FFFFFF"/>
	<path d="M64.755,74.457H47.438c-12.947,0-23.48-10.531-23.48-23.479c0-12.946,10.533-23.479,23.48-23.479   c6.849,0,13.021,2.948,17.316,7.642V10.648c-5.316-2.292-11.17-3.566-17.316-3.566c-24.205,0-43.897,19.693-43.897,43.896   c0,24.205,19.692,43.896,43.897,43.896h17.724c-0.268-3.382-0.407-6.743-0.407-10.208V74.457z" fill="#FFFFFF"/>
	<path d="M231.84,94.874h17.724c24.204,0,43.896-19.69,43.896-43.896c0-24.203-19.691-43.896-43.896-43.896   c-6.146,0-12,1.274-17.315,3.566v24.492c4.295-4.693,10.467-7.642,17.315-7.642c12.946,0,23.479,10.533,23.479,23.479   c0,12.947-10.532,23.479-23.479,23.479h-17.315v10.209C232.248,88.131,232.107,91.492,231.84,94.874z" fill="#FFFFFF"/>
	<path d="M64.282,226.052c-5.638,0-10.209,4.571-10.209,10.208v50.532c0,5.638,4.571,10.208,10.209,10.208H232.72   c5.638,0,10.209-4.57,10.209-10.208V236.26c0-5.637-4.571-10.208-10.209-10.208H64.282z" fill="#FFFFFF"/>
	<path d="M230.165,107.633c-1.264,6.857-3.08,13.46-5.454,19.705c2.533,0.789,5.22,1.224,8.009,1.224   c5.638,0,10.209-4.569,10.209-10.208c0-5.637-4.233-9.09-10.209-10.209C232.017,108.014,230.165,107.633,230.165,107.633z" fill="#FFFFFF"/>
</g>
<g>
</g>
<g>
</g>
<g>
</g>
<g>
</g>
<g>
</g>
<g>
</g>
<g>
</g>
<g>
</g>
<g>
</g>
<g>
</g>
<g>
</g>
<g>
</g>
<g>
</g>
<g>
</g>
<g>
</g>
</svg>
